{
  "accessors": [
    {
      "bufferView": 2,
      "componentType": 5126,
      "count": 3960,
      "max": [
        36.267372131347656,
        137.44398498535156,
        36.267372131347656
      ],
      "min": [
        -36.267372131347656,
        -134.92376708984375,
        -36.267372131347656
      ],
      "type": "VEC3"
    },
    {
      "bufferView": 2,
      "byteOffset": 47520,
      "componentType": 5126,
      "count": 3960,
      "max": [
        1.0,
        1.0,
        1.0
      ],
      "min": [
        -1.0,
        -0.9998852610588074,
        -1.0
      ],
      "type": "VEC3"
    },
    {
      "bufferView": 1,
      "componentType": 5126,
      "count": 3960,
      "max": [
        0.0,
        0.0
      ],
      "min": [
        0.0,
        0.0
      ],
      "type": "VEC2"
    },
    {
      "bufferView": 0,
      "componentType": 5125,
      "count": 16920,
      "type": "SCALAR"
    },
    {
      "bufferView": 2,
      "byteOffset": 95040,
      "componentType": 5126,
      "count": 841,
      "max": [
        14.473615646362305,
        137.6068878173828,
        14.473615646362305
      ],
      "min": [
        -14.473615646362305,
        77.10550689697266,
        -14.473615646362305
      ],
      "type": "VEC3"
    },
    {
      "bufferView": 2,
      "byteOffset": 105132,
      "componentType": 5126,
      "count": 841,
      "max": [
        1.0,
        1.0,
        1.0
      ],
      "min": [
        -1.0,
        -0.44722530245780945,
        -1.0
      ],
      "type": "VEC3"
    },
    {
      "bufferView": 1,
      "byteOffset": 31680,
      "componentType": 5126,
      "count": 841,
      "max": [
        0.0,
        0.0
      ],
      "min": [
        0.0,
        0.0
      ],
      "type": "VEC2"
    },
    {
      "bufferView": 0,
      "byteOffset": 67680,
      "componentType": 5125,
      "count": 3060,
      "type": "SCALAR"
    },
    {
      "bufferView": 2,
      "byteOffset": 115224,
      "componentType": 5126,
      "count": 92,
      "max": [
        32.61317825317383,
        7.727427959442139,
        36.54023361206055
      ],
      "min": [
        -32.61317825317383,
        -102.27256774902344,
        16.47935676574707
      ],
      "type": "VEC3"
    },
    {
      "bufferView": 2,
      "byteOffset": 116328,
      "componentType": 5126,
      "count": 92,
      "max": [
        0.8925279378890991,
        0.0,
        1.0
      ],
      "min": [
        -0.8925279378890991,
        0.0,
        0.45099207758903503
      ],
      "type": "VEC3"
    },
    {
      "bufferView": 1,
      "byteOffset": 38408,
      "componentType": 5126,
      "count": 92,
      "max": [
        1.0,
        1.0
      ],
      "min": [
        0.0,
        0.0
      ],
      "type": "VEC2"
    },
    {
      "bufferView": 0,
      "byteOffset": 79920,
      "componentType": 5125,
      "count": 396,
      "type": "SCALAR"
    },
    {
      "bufferView": 2,
      "byteOffset": 117432,
      "componentType": 5126,
      "count": 38,
      "max": [
        28.534656524658203,
        -9.756244659423828,
        -22.82459259033203
      ],
      "min": [
        -28.534656524658203,
        -89.7562484741211,
        -36.54023361206055
      ],
      "type": "VEC3"
    },
    {
      "bufferView": 2,
      "byteOffset": 117888,
      "componentType": 5126,
      "count": 38,
      "max": [
        0.7809106111526489,
        0.0,
        -0.6246427893638611
      ],
      "min": [
        -0.7809106111526489,
        0.0,
        -1.0
      ],
      "type": "VEC3"
    },
    {
      "bufferView": 1,
      "byteOffset": 39144,
      "componentType": 5126,
      "count": 38,
      "max": [
        1.0,
        1.0
      ],
      "min": [
        0.0,
        0.0
      ],
      "type": "VEC2"
    },
    {
      "bufferView": 0,
      "byteOffset": 81504,
      "componentType": 5125,
      "count": 108,
      "type": "SCALAR"
    }
  ],
  "asset": {
    "extras": {
      "author": "ilya.terekhin (https://sketchfab.com/ilya.terekhin)",
      "license": "CC-BY-4.0 (http://creativecommons.org/licenses/by/4.0/)",
      "source": "https://sketchfab.com/3d-models/classic-wine-bottle-with-label-7ce93c8c3db74d3eb6421b5579717938",
      "title": "Classic wine bottle with label"
    },
    "generator": "Sketchfab-12.67.0",
    "version": "2.0"
  },
  "bufferViews": [
    {
      "buffer": 0,
      "byteLength": 81936,
      "name": "floatBufferViews",
      "target": 34963
    },
    {
      "buffer": 0,
      "byteLength": 39448,
      "byteOffset": 81936,
      "byteStride": 8,
      "name": "floatBufferViews",
      "target": 34962
    },
    {
      "buffer": 0,
      "byteLength": 118344,
      "byteOffset": 121384,
      "byteStride": 12,
      "name": "floatBufferViews",
      "target": 34962
    }
  ],
  "buffers": [
    {
      "byteLength": 239728,
      "uri": "wine.bin"
    }
  ],
  "images": [
    {
      "uri": "textures/printarea-1_3_baseColor.png"
    }
  ],
  "materials": [
    {
      "alphaMode": "BLEND",
      "doubleSided": true,
      "name": "Material_0",
      "pbrMetallicRoughness": {
        "baseColorFactor": [
          0.0030686378363621054,
          0.09001585088471749,
          0.04372196182505423,
          0.8101181402439025
        ],
        "metallicFactor": 0.0,
        "roughnessFactor": 0.6
      }
    },
    {
      "doubleSided": true,
      "name": "Material_2",
      "pbrMetallicRoughness": {
        "baseColorFactor": [
          0.227451,
          0.0196078,
          0.0196078,
          1.0
        ],
        "metallicFactor": 0.0,
        "roughnessFactor": 0.6
      }
    },
    {
      "doubleSided": true,
      "name": "printarea-1_3",
      "pbrMetallicRoughness": {
        "baseColorTexture": {
          "index": 0
        },
        "metallicFactor": 0.0,
        "roughnessFactor": 0.6
      }
    },
    {
      "doubleSided": true,
      "name": "printarea-2_5",
      "pbrMetallicRoughness": {
        "baseColorFactor": [
          0.9,
          0.9,
          0.9,
          1.0
        ],
        "metallicFactor": 0.0,
        "roughnessFactor": 0.6
      }
    }
  ],
  "meshes": [
    {
      "name": "Material_0",
      "primitives": [
        {
          "attributes": {
            "NORMAL": 1,
            "POSITION": 0,
            "TEXCOORD_0": 2
          },
          "indices": 3,
          "material": 0,
          "mode": 4
        }
      ]
    },
    {
      "name": "Material_2",
      "primitives": [
        {
          "attributes": {
            "NORMAL": 5,
            "POSITION": 4,
            "TEXCOORD_0": 6
          },
          "indices": 7,
          "material": 1,
          "mode": 4
        }
      ]
    },
    {
      "name": "printarea-1_3",
      "primitives": [
        {
          "attributes": {
            "NORMAL": 9,
            "POSITION": 8,
            "TEXCOORD_0": 10
          },
          "indices": 11,
          "material": 2,
          "mode": 4
        }
      ]
    },
    {
      "name": "printarea-2_5",
      "primitives": [
        {
          "attributes": {
            "NORMAL": 13,
            "POSITION": 12,
            "TEXCOORD_0": 14
          },
          "indices": 15,
          "material": 3,
          "mode": 4
        }
      ]
    }
  ],
  "nodes": [
    {
      "children": [
        1
      ],
      "matrix": [
        1.0,
        0.0,
        0.0,
        0.0,
        0.0,
        2.220446049250313e-16,
        -1.0,
        0.0,
        0.0,
        1.0,
        2.220446049250313e-16,
        0.0,
        0.0,
        0.0,
        0.0,
        1.0
      ],
      "name": "Sketchfab_model"
    },
    {
      "children": [
        2,
        4
      ],
      "matrix": [
        1.0,
        0.0,
        0.0,
        0.0,
        0.0,
        -4.371139006309477e-08,
        0.999999999999999,
        0.0,
        0.0,
        -0.999999999999999,
        -4.371139006309477e-08,
        0.0,
        0.0,
        0.0,
        0.0,
        1.0
      ],
      "name": "Collada visual scene group"
    },
    {
      "children": [
        3
      ],
      "matrix": [
        0.9999143275697814,
        -0.0002855400917020948,
        -0.01308648109799202,
        0.0,
        -7.952447825872039e-09,
        0.9997620270599109,
        -0.02181488595106619,
        0.0,
        0.01308959589414465,
        0.02181301712084138,
        0.9996763750151415,
        0.0,
        -2.3839815366244466e-07,
        6.80788758700146e-11,
        -592.584536388966,
        1.0
      ],
      "name": "camera"
    },
    {
      "name": "Camera"
    },
    {
      "children": [
        5,
        6,
        7,
        8
      ],
      "name": "root"
    },
    {
      "mesh": 0,
      "name": "Material_0"
    },
    {
      "mesh": 1,
      "name": "Material_2"
    },
    {
      "mesh": 2,
      "name": "printarea-1_3"
    },
    {
      "mesh": 3,
      "name": "printarea-2_5"
    }
  ],
  "samplers": [
    {
      "magFilter": 9729,
      "minFilter": 9987,
      "wrapS": 33071,
      "wrapT": 33071
    }
  ],
  "scene": 0,
  "scenes": [
    {
      "name": "Sketchfab_Scene",
      "nodes": [
        0
      ]
    }
  ],
  "textures": [
    {
      "sampler": 0,
      "source": 0
    },
    {
      "sampler": 0,
      "source": 1
    }
  ]
}
